<?xml version="1.0" encoding="utf-8"?>
<!-- Generator: Adobe Illustrator 17.0.1, SVG Export Plug-In . SVG Version: 6.00 Build 0)  -->
<!DOCTYPE svg PUBLIC "-//W3C//DTD SVG 1.1//EN" "http://www.w3.org/Graphics/SVG/1.1/DTD/svg11.dtd">
<svg version="1.1" id="Layer_1" xmlns="http://www.w3.org/2000/svg" xmlns:xlink="http://www.w3.org/1999/xlink" x="0px" y="0px"
	 width="595.28px" height="841.89px" viewBox="0 0 595.28 841.89" enable-background="new 0 0 595.28 841.89" xml:space="preserve">
<g id="Layer_2" display="none">
	<path display="inline" fill="#666765" d="M297.64,123.305c164.386,0,297.64,133.254,297.64,297.64s-133.254,297.64-297.64,297.64
		S0,585.331,0,420.945S133.254,123.305,297.64,123.305z"/>
</g>
<g id="Layer_1_1_">
	<path fill="#FFFFFF" d="M297.64,123.305c164.386,0,297.64,133.254,297.64,297.64s-133.254,297.64-297.64,297.64
		S0,585.331,0,420.945S133.254,123.305,297.64,123.305z"/>
	<path display="none" fill="#FFFFFF" d="M297.64,123.305c164.386,0,297.64,133.254,297.64,297.64s-133.254,297.64-297.64,297.64
		S0,585.331,0,420.945S133.254,123.305,297.64,123.305z"/>
	<g id="g4376" transform="matrix(0.69171067,0,0,0.69171067,563.4883,240.6698)">
		<g id="g4176">
			<path id="path23723" fill="#B32062" d="M-478.169,529.201c-19.024,2.875-38.668-0.507-56.501-9.195
				c-23.786-11.589-42.974-32.55-52.65-58.439c-9.702-25.876-9.259-54.512,0.494-80.363c3.99-10.576,8.878-18.555,16.048-30.612
				l33.855-49.117c6.662-11.336,10.499-22.621,9.828-20.67c3.508-10.171,4.307-22.836,0.595-33.285
				c-3.724-10.525-12.298-19.986-21.658-25.901c-10.386-6.548-24.178-8.739-36.033-6.257c-11.842,2.483-23.242,9.512-30.524,19.771
				c-12.653,17.593-5.662,9.284-19.011,26.813c-8.106,13.451-27.434,16.985-39.149,7.017c-11.715-9.98-12.919-31.22-2.394-42.607
				l17.947-25.914c15.477-21.519,38.11-36.717,63.087-41.948c25.192-5.281,51.511,0.241,73.625,14.173
				c19.885,12.526,35.641,31.638,43.924,54.994c8.296,23.406,8.942,49.661,0.71,73.485c-3.952,11.424-9.512,18.593-16.643,30.739
				l-32.537,49.497c0,0-7.65,10.082-12.083,21.81c-4.433,11.741-4.281,25.369,0.114,37.123
				c4.395,11.754,13.628,22.051,24.419,27.294c10.791,5.256,24.09,6.574,35.312,2.432c11.221-4.142,21.228-14.502,27.662-25.116
				c0,0,5.104-6.523,32.044-48.724c-5.674-8.676-10.373-18.834-12.45-29.853c-4.268-22.747,1.317-44.557,13.299-61.871l123.4,87.152
				c-10.386,18.441-28.333,32.563-49.687,37.123c-10.677,2.28-20.544,2.343-30.524-0.139l-30.132,45.672
				c-14.147,21.911-31.765,40.884-55.424,49.611C-465.415,526.148-471.824,528.251-478.169,529.201L-478.169,529.201z"/>
			<path id="path23721" fill="#B32062" d="M-253.559-7.793c-8.271,2.178-15.604,7.789-20.873,16.199l-24.698,38.972l-34.805-24.736
				c-3.508-2.495-7.928-2.622-11.741-1.811c-3.813,0.811-6.789,2.521-9.132,6.257l-20.455,32.196
				c-8.701,13.919-5.142,32.943,7.916,42.227l6.713,4.458l-49.826,77.652c-24.647,39.377-9.081,92.547,12.931,108.202
				l100.666,71.877c11.007,7.827,29.219,10.373,47.825,5.889c18.593-4.484,37.642-16.047,49.952-35.73l48.61-78.184l7.219,5.13
				c13.058,9.271,30.916,5.472,39.618-8.435l20.24-31.36c4.674-7.473,2.774-17.643-4.243-22.621l-36.502-25.952l24.621-39.352
				c10.537-16.845,7.422-39.162-7.067-49.459c-7.245-5.155-16.174-5.18-24.559-3.394c-8.372,1.786-15.743,7.042-21.012,15.452
				l-24.28,39.288l-70.534-50.447l23.988-38.833c10.537-16.845,8.156-38.972-6.295-49.231
				C-236.435-8.704-245.301-9.971-253.559-7.793L-253.559-7.793z"/>
		</g>
	</g>
</g>
</svg>
