<?xml version="1.0" encoding="iso-8859-1"?>
<!-- Generator: Adobe Illustrator 19.1.0, SVG Export Plug-In . SVG Version: 6.00 Build 0)  -->
<svg version="1.1" id="Capa_1" xmlns="http://www.w3.org/2000/svg" xmlns:xlink="http://www.w3.org/1999/xlink" x="0px" y="0px"
	 viewBox="0 0 134.4 134.4" style="enable-background:new 0 0 134.4 134.4;" xml:space="preserve">
<g>
	<path d="M130.2,77.292c-1.26-32.38-26.88-58.452-58.8-60.554v-2.103h8.4c2.52,0,4.2-1.682,4.2-4.205s-1.68-4.205-4.2-4.205H54.6
		c-2.52,0-4.2,1.682-4.2,4.205s1.68,4.205,4.2,4.205H63v2.103C31.08,19.261,5.46,44.913,4.2,77.292C1.68,77.713,0,79.815,0,81.918
		v8.831c0,3.364,4.62,7.99,8.4,7.99h25.2v4.205H7.98H6.72c-6.3,0-6.72,4.626-6.72,6.308v14.718c0,2.523,1.68,4.205,4.2,4.205h126
		c2.52,0,4.2-1.682,4.2-4.205v-14.718c0-1.262-0.42-6.308-6.72-6.308H100.8v-4.205h25.62c3.36,0,7.98-4.626,7.98-7.99v-8.831
		C134.4,79.815,132.72,77.713,130.2,77.292z M63.84,25.148c0.84,1.262,1.68,2.103,3.36,2.103c1.68,0,2.52-0.841,3.36-2.103
		c28.14,1.682,49.98,24.39,51.24,52.565H12.6C13.86,49.538,36.12,27.251,63.84,25.148z M126,111.354v8.41H8.4v-8.41H126z
		 M42,102.944v-4.205h50.4v4.205H42z M126,89.487c0,0.421-0.42,0.421-0.84,0.841H9.24c-0.42-0.421-0.42-0.421-0.84-0.841v-3.364H126
		V89.487z"/>
</g>
<g>
</g>
<g>
</g>
<g>
</g>
<g>
</g>
<g>
</g>
<g>
</g>
<g>
</g>
<g>
</g>
<g>
</g>
<g>
</g>
<g>
</g>
<g>
</g>
<g>
</g>
<g>
</g>
<g>
</g>
</svg>
